Coordinates
version=1
nRows=6
nColumns=46
inDegrees=yes

Units are S.I. units (second, meters, Newtons, ...)
Angles are in degrees.

endheader
time	pelvis_tilt	pelvis_list	pelvis_rotation	pelvis_tx	pelvis_ty	pelvis_tz	bb_angle	bb_tx	bb_ty	bb_tz	hip_flexion_r	hip_adduction_r	hip_rotation_r	knee_angle_r	knee_angle_r_beta	ankle_angle_r	subtalar_angle_r	mtp_angle_r	crank_angle_r	hip_flexion_l	hip_adduction_l	hip_rotation_l	knee_angle_l	knee_angle_l_beta	ankle_angle_l	subtalar_angle_l	mtp_angle_l	crank_angle_l	lumbar_extension	lumbar_bending	lumbar_rotation	arm_flex_r	arm_add_r	arm_rot_r	elbow_flex_r	pro_sup_r	wrist_flex_r	wrist_dev_r	arm_flex_l	arm_add_l	arm_rot_l	elbow_flex_l	pro_sup_l	wrist_flex_l	wrist_dev_l
      7.50000000	    -13.16092208	     -4.02644226	     -3.02848476	      0.14805524	      1.13257898	     -0.25338284	      0.00000000	      0.50000000	      0.00000000	      0.25000000	     66.20886934	      5.38262388	      9.04294574	    103.62911269	      1.80866922	      6.67918541	    -11.19514383	      0.00000000	      0.00000000	     40.97536678	     -6.50971822	      4.28061189	     28.91247558	      0.50461789	     -3.21283830	     -8.23594672	      0.00000000	      0.00000000	    -64.38677312	      2.16590453	      2.04525170	     89.47971356	    -17.41938808	     44.59741964	     58.44761137	     43.76604619	      0.00000000	      0.00000000	     79.34330525	    -28.57075061	     34.12425706	     69.43266571	     46.57573554	      0.00000000	      0.00000000
      7.50500000	    -13.52560291	     -4.61136807	     -3.60095635	      0.14755035	      1.13220956	     -0.25400259	      0.00000000	      0.50000000	      0.00000000	      0.25000000	     67.97126628	      5.96343328	      8.63596108	    104.74538597	      1.82815186	      7.19765255	    -10.76767566	      0.00000000	      0.00000000	     39.83776953	     -7.49120771	      3.63642610	     26.96718947	      0.47066625	     -4.31578877	     -7.13136291	      0.00000000	      0.00000000	    -64.13708751	      2.55131406	      3.01380339	     89.51264001	    -17.31821917	     44.64949620	     58.68484636	     43.77197881	      0.00000000	      0.00000000	     79.13264571	    -28.81257897	     34.05796629	     69.25914541	     46.56932622	      0.00000000	      0.00000000
      7.51000000	    -13.77544161	     -5.01327581	     -4.21749457	      0.14701245	      1.13195375	     -0.25456942	      0.00000000	      0.50000000	      0.00000000	      0.25000000	     69.64979080	      6.41920486	      8.37767767	    105.79275018	      1.84643182	      7.60765159	    -10.05360222	      0.00000000	      0.00000000	     38.63976089	     -8.37629466	      2.54665288	     25.21550577	      0.44009360	     -5.38200207	     -5.82697252	      0.00000000	      0.00000000	    -63.97623729	      2.72610485	      3.85316166	     89.53415138	    -17.36043927	     44.71767105	     58.96632450	     43.77313538	      0.00000000	      0.00000000	     78.81809048	    -28.93625252	     34.03514101	     69.08278757	     46.57373483	      0.00000000	      0.00000000
      7.51500000	    -14.17461309	     -5.38063882	     -4.71288684	      0.14700547	      1.13145444	     -0.25553594	      0.00000000	      0.50000000	      0.00000000	      0.25000000	     71.41067147	      6.69229587	      8.08811145	    106.72648088	      1.86272849	      8.14428252	     -9.50933598	      0.00000000	      0.00000000	     37.63219794	     -9.12843823	      1.40519248	     23.61055355	      0.41208190	     -6.21480127	     -4.54108075	      0.00000000	      0.00000000	    -63.66925647	      3.12040482	      4.63703637	     89.55529204	    -17.34952405	     44.80056649	     59.26036756	     43.78754907	      0.00000000	      0.00000000	     78.52979014	    -29.10547003	     33.98883470	     68.93440772	     46.57348709	      0.00000000	      0.00000000
      7.52000000	    -14.19736235	     -5.41745527	     -5.60784682	      0.14683567	      1.13155271	     -0.25536515	      0.00000000	      0.50000000	      0.00000000	      0.25000000	     72.78675537	      7.25712202	      8.28762600	    107.55381089	      1.87716812	      8.86908321	     -8.32916979	      0.00000000	      0.00000000	     36.22369336	     -9.95924996	     -0.80959174	     22.27953952	      0.38885132	     -6.57287731	     -2.14535589	      0.00000000	      0.00000000	    -63.72842257	      2.74680163	      5.36382310	     89.56001514	    -17.84718816	     45.23894830	     60.01588294	     43.76191291	      0.00000000	      0.00000000	     78.25766298	    -28.97568219	     33.72550773	     68.76624697	     46.62985968	      0.00000000	      0.00000000
      7.52500000	    -14.39959045	     -5.64950043	     -6.20295822	      0.14671199	      1.13126795	     -0.25581812	      0.00000000	      0.50000000	      0.00000000	      0.25000000	     74.28020593	      7.60359372	      8.11992585	    108.21580863	      1.88872216	      9.32478690	     -7.65305638	      0.00000000	      0.00000000	     35.16358344	    -10.69611627	     -2.50732184	     21.16244029	      0.36935426	     -6.70214384	     -0.77019237	      0.00000000	      0.00000000	    -63.63017909	      2.86300500	      6.12881804	     89.57764344	    -18.08882082	     45.47168895	     60.56330687	     43.70104800	      0.00000000	      0.00000000	     77.98564215	    -28.98935557	     33.62333130	     68.52038527	     46.67072606	      0.00000000	      0.00000000
